<?xml version="1.0" standalone="no"?>
<!DOCTYPE svg PUBLIC "-//W3C//DTD SVG 20010904//EN"
 "http://www.w3.org/TR/2001/REC-SVG-20010904/DTD/svg10.dtd">
<svg version="1.0" xmlns="http://www.w3.org/2000/svg"
 width="700.000000pt" height="700.000000pt" viewBox="0 0 700.000000 700.000000"
 preserveAspectRatio="xMidYMid meet">
<metadata>
Created by potrace 1.11, written by Peter Selinger 2001-2013
</metadata>
<g transform="translate(0.000000,700.000000) scale(0.100000,-0.100000)"
fill="#000000" stroke="none">
<path d="M3158 6995 c-2 -2 -62 -6 -134 -9 -71 -4 -152 -9 -180 -11 -27 -2
-80 -7 -119 -10 -84 -7 -112 -10 -185 -19 -69 -9 -112 -14 -175 -21 -44 -5
-112 -16 -182 -29 -11 -3 -43 -8 -70 -11 -138 -20 -490 -101 -630 -146 -54
-17 -102 -32 -108 -33 -5 -1 -32 -10 -60 -21 -432 -162 -675 -326 -772 -523
l-38 -76 0 -330 c0 -300 2 -336 19 -381 18 -49 68 -127 110 -173 39 -42 151
-129 220 -172 264 -161 552 -264 1031 -371 28 -6 59 -13 70 -15 46 -11 113
-23 155 -29 25 -3 79 -12 121 -20 80 -15 133 -22 209 -29 25 -3 65 -7 90 -10
110 -15 216 -25 320 -31 36 -2 115 -8 175 -12 135 -9 811 -9 955 0 58 4 139 9
180 12 41 3 98 7 125 10 28 3 73 8 100 10 28 3 61 7 75 10 14 3 54 7 90 10 36
3 76 8 90 10 61 9 117 18 135 21 11 3 63 11 115 20 132 21 125 20 223 43 49
12 101 23 117 26 63 11 262 66 379 105 327 108 578 241 722 382 79 78 95 98
124 157 42 84 45 112 42 441 -2 309 -2 316 -26 370 -92 208 -372 398 -806 550
-156 55 -360 111 -525 145 -8 2 -44 10 -80 18 -36 8 -87 18 -113 22 -27 3 -59
8 -70 11 -33 7 -209 36 -237 39 -14 2 -47 6 -75 9 -56 6 -133 15 -185 22 -46
6 -124 12 -235 19 -49 3 -115 8 -145 11 -51 6 -837 14 -842 9z"/>
<path d="M502 4289 c3 -372 3 -374 27 -429 33 -74 62 -113 140 -188 119 -115
322 -233 564 -327 235 -91 608 -186 942 -240 209 -34 195 -32 310 -45 55 -6
114 -12 130 -15 17 -2 59 -6 95 -9 66 -6 109 -9 300 -23 219 -15 931 -8 1145
12 22 2 74 6 115 10 41 3 129 12 195 20 66 8 145 17 175 20 30 3 73 10 95 15
22 5 60 11 85 15 80 11 204 34 270 49 36 8 76 17 90 19 54 10 339 87 428 116
144 47 214 76 382 154 180 84 360 223 436 337 70 103 69 97 72 509 l3 373 -38
-23 c-21 -12 -50 -31 -64 -40 -55 -38 -327 -179 -345 -179 -3 0 -29 -11 -57
-24 -94 -43 -390 -139 -524 -171 -10 -3 -38 -9 -63 -16 -101 -25 -355 -77
-455 -93 -92 -15 -228 -35 -280 -41 -32 -4 -67 -8 -77 -10 -9 -2 -48 -7 -85
-10 -37 -4 -79 -8 -93 -10 -14 -2 -61 -7 -105 -10 -44 -3 -98 -8 -120 -10
-128 -13 -363 -20 -685 -20 -406 0 -653 10 -930 40 -108 11 -157 17 -180 20
-14 2 -45 6 -70 10 -168 22 -230 31 -360 55 -58 11 -116 21 -130 24 -14 2 -45
9 -70 14 -25 6 -79 18 -120 28 -110 24 -281 71 -390 107 -52 17 -97 32 -100
32 -10 3 -38 14 -155 61 -157 62 -328 152 -483 252 l-23 15 3 -374z"/>
<path d="M502 2788 l3 -374 38 -78 c87 -175 322 -345 667 -481 89 -35 255 -92
291 -100 9 -2 47 -13 85 -24 38 -11 101 -27 139 -35 39 -9 117 -26 175 -40 58
-13 139 -29 180 -36 107 -17 119 -19 180 -30 30 -5 78 -12 105 -15 28 -3 64
-7 80 -10 17 -2 55 -7 85 -10 30 -3 69 -8 85 -10 200 -26 525 -40 900 -40 335
1 537 9 770 31 77 7 76 7 225 24 58 7 116 13 130 15 22 2 310 49 365 60 11 2
72 15 135 30 540 122 900 268 1140 461 83 67 134 125 179 206 36 65 42 145 39
497 l-3 333 -50 -34 c-225 -151 -554 -291 -910 -386 -100 -27 -312 -77 -375
-88 -14 -3 -72 -13 -130 -24 -58 -10 -121 -21 -140 -24 -19 -3 -44 -7 -55 -10
-11 -2 -49 -7 -85 -11 -36 -4 -74 -9 -85 -11 -24 -5 -92 -13 -155 -20 -25 -2
-65 -6 -90 -9 -25 -3 -74 -8 -110 -11 -36 -3 -85 -7 -110 -9 -310 -27 -1118
-27 -1380 0 -19 1 -75 6 -125 10 -49 3 -103 8 -120 10 -16 2 -57 7 -90 10 -33
3 -71 8 -85 10 -14 2 -63 9 -110 15 -75 9 -289 43 -352 55 -148 29 -147 29
-268 56 -177 39 -493 132 -575 168 -11 5 -66 28 -123 51 -150 62 -258 119
-443 234 l-30 19 3 -375z"/>
<path d="M502 1288 l3 -374 39 -78 c69 -140 224 -271 463 -390 163 -81 398
-169 568 -212 6 -1 54 -14 107 -28 53 -13 112 -27 131 -30 18 -3 59 -12 90
-20 47 -12 226 -45 327 -61 14 -2 45 -7 70 -11 56 -9 71 -11 140 -18 71 -8
148 -17 180 -22 53 -7 213 -19 400 -31 160 -9 786 -10 955 0 192 11 359 24
407 32 23 3 76 10 181 21 72 7 128 16 262 39 44 8 97 17 117 19 39 6 161 32
313 67 651 151 1103 403 1221 679 17 41 19 77 22 418 3 306 1 372 -10 366 -7
-4 -49 -30 -93 -58 -179 -111 -438 -226 -690 -305 -129 -40 -463 -125 -540
-136 -22 -4 -58 -10 -80 -15 -22 -5 -69 -14 -105 -19 -69 -12 -110 -19 -150
-26 -14 -3 -52 -7 -85 -10 -33 -3 -67 -8 -75 -10 -19 -5 -78 -13 -157 -20 -34
-3 -71 -8 -82 -10 -11 -2 -66 -7 -122 -10 -55 -4 -109 -8 -118 -10 -98 -19
-949 -27 -1206 -12 -177 11 -320 22 -410 33 -22 2 -60 6 -85 9 -25 2 -61 7
-80 9 -19 3 -57 7 -85 11 -27 3 -63 7 -80 10 -16 2 -48 7 -70 10 -501 69
-1086 238 -1395 403 -85 45 -153 83 -180 102 -14 9 -42 27 -63 39 l-38 23 3
-374z"/>
</g>
</svg>
